<?xml version="1.0" encoding="utf-8"?>
<!-- Generator: Adobe Illustrator 26.0.3, SVG Export Plug-In . SVG Version: 6.00 Build 0)  -->
<svg version="1.1" id="Layer_1" xmlns="http://www.w3.org/2000/svg" xmlns:xlink="http://www.w3.org/1999/xlink" x="0px" y="0px"
	 viewBox="0 0 751.2 749.5" style="enable-background:new 0 0 751.2 749.5;" xml:space="preserve">
<style type="text/css">
	.st0{fill:#FFFFFF;}
	.st1{fill:#231F20;}
	.st2{fill:#E1251B;}
	.st3{fill:#FFCD00;}
	.st4{fill:#AB1D37;}
	.st5{fill:#006580;}
	.st6{fill:#E81D2C;}
	.st7{fill:#0099A8;}
	.st8{fill:#EA6852;}
	.st9{fill:#3AC1CD;}
	.st10{fill:#99D9D9;}
</style>
<g>
	<g>
		<circle class="st0" cx="375.6" cy="36.5" r="34.7"/>
		<path class="st1" d="M375.6,72.5c-19.8,0-36-16.1-36-36s16.1-36,36-36s36,16.1,36,36S395.4,72.5,375.6,72.5z M375.6,3.1
			c-18.4,0-33.5,15-33.5,33.5s15,33.5,33.5,33.5S409,55,409,36.5S394,3.1,375.6,3.1z"/>
	</g>
	<g>
		<path class="st2" d="M375.6,678.8c19.2,0,34.7,15.5,34.7,34.7c0,19.2-15.5,34.7-34.7,34.7c-19.2,0-34.7-15.5-34.7-34.7
			C340.9,694.4,356.4,678.8,375.6,678.8z"/>
		<path class="st1" d="M375.6,749.5c-19.8,0-36-16.1-36-36c0-19.8,16.1-36,36-36s36,16.1,36,36C411.5,733.4,395.4,749.5,375.6,749.5
			z M375.6,680.1c-18.4,0-33.5,15-33.5,33.5c0,18.4,15,33.5,33.5,33.5s33.5-15,33.5-33.5C409,695.1,394,680.1,375.6,680.1z"/>
	</g>
	<g>
		<g>
			<g>
				<path class="st2" d="M375.6,612.2c-48,0-92.6-14.3-130-38.8h-68c50.7,50.6,120.7,81.9,198,81.9s147.3-31.3,198-81.9h-68
					C468.2,598,423.6,612.2,375.6,612.2z"/>
				<path class="st1" d="M375.6,656.6c-75.1,0-145.7-29.2-198.9-82.3l-2.1-2.1H246l0.3,0.2c38.4,25.2,83.1,38.6,129.3,38.6
					c46.1,0,90.8-13.3,129.3-38.6l0.3-0.2h71.4l-2.1,2.1C521.3,627.4,450.7,656.6,375.6,656.6z M180.6,574.7
					c52.4,51.2,121.5,79.4,195,79.4s142.5-28.2,195-79.4h-64.6c-38.8,25.4-83.8,38.8-130.3,38.8c-46.5,0-91.6-13.4-130.3-38.8H180.6
					z"/>
			</g>
			<g>
				<path class="st3" d="M612.8,375c0,48-14.3,92.6-38.8,130v68c50.6-50.7,81.9-120.7,81.9-198S624.6,227.7,574,177v68
					C598.5,282.4,612.8,327,612.8,375z"/>
				<path class="st1" d="M572.8,576.1v-71.4l0.2-0.3c25.2-38.4,38.6-83.1,38.6-129.3c0-46.1-13.3-90.8-38.6-129.3l-0.2-0.3V174
					l2.1,2.1c53,53.2,82.3,123.8,82.3,198.9c0,75.1-29.2,145.7-82.3,198.9L572.8,576.1z M575.3,505.4V570
					c51.2-52.4,79.4-121.5,79.4-195s-28.2-142.5-79.4-195v64.6C600.6,283.5,614,328.5,614,375S600.6,466.6,575.3,505.4z"/>
			</g>
			<g>
				<path class="st0" d="M375.6,137.8c48,0,92.6,14.3,130,38.8h68c-50.7-50.6-120.7-81.9-198-81.9s-147.3,31.3-198,81.9h68
					C283,152.1,327.6,137.8,375.6,137.8z"/>
				<path class="st1" d="M576.6,177.9h-71.4l-0.3-0.2c-38.4-25.2-83.1-38.6-129.3-38.6c-46.1,0-90.8,13.3-129.3,38.6l-0.3,0.2h-71.4
					l2.1-2.1c53.2-53,123.8-82.3,198.9-82.3c75.1,0,145.7,29.2,198.9,82.3L576.6,177.9z M505.9,175.4h64.6
					C518.1,124.1,449,96,375.6,96c-73.4,0-142.5,28.2-195,79.4h64.6c38.8-25.4,83.8-38.8,130.3-38.8
					C422.1,136.6,467.2,150,505.9,175.4z"/>
			</g>
		</g>
		<g>
			<circle class="st3" cx="715.2" cy="375" r="34.7"/>
			<path class="st1" d="M715.2,411c-19.8,0-35.9-16.1-35.9-36s16.1-36,35.9-36c19.8,0,36,16.1,36,36S735.1,411,715.2,411z
				 M715.2,341.6c-18.4,0-33.4,15-33.4,33.5s15,33.5,33.4,33.5s33.5-15,33.5-33.5S733.7,341.6,715.2,341.6z"/>
		</g>
		<g>
			<path class="st1" d="M178.4,245.4V174l-2.1,2.1C123.2,229.3,94,299.9,94,375c0,75.1,29.2,145.7,82.3,198.9l2.1,2.1v-71.4
				l-0.2-0.3c-25.2-38.4-38.6-83.1-38.6-129.3s13.3-90.8,38.6-129.3L178.4,245.4z"/>
			<ellipse transform="matrix(0.9871 -0.1602 0.1602 0.9871 -59.6094 10.6012)" class="st1" cx="35.9" cy="375" rx="35.9" ry="36"/>
		</g>
	</g>
</g>
<g>
	<g>
		<polygon class="st4" points="664,255.6 495,255.6 495,86.6 375.6,206.2 256,86.5 256,255.6 87,255.6 206.7,375 544.4,375 		"/>
		<polygon class="st5" points="664.1,494.5 544.3,375.1 544.4,375 206.7,375 206.7,375.1 87,494.5 256.2,494.5 256.1,663.5 
			375.6,543.9 495,663.6 495,494.5 		"/>
	</g>
	<polygon class="st6" points="592.2,285.3 465.3,285.4 465.3,158.4 375.6,248.3 285.8,158.4 285.8,285.4 158.9,285.4 248.7,375 
		502.4,375 	"/>
	<polygon class="st7" points="502.3,375.1 502.4,375 248.7,375 248.8,375.1 158.9,464.7 285.9,464.7 285.9,591.7 375.6,501.9 
		465.3,591.7 465.3,464.7 592.3,464.7 	"/>
	<polygon class="st8" points="520.3,315.1 435.5,315.2 435.5,230.3 375.6,290.3 315.6,230.2 315.6,315.1 230.8,315.1 290.8,375 
		460.3,375 	"/>
	<polygon class="st9" points="460.3,375.1 460.3,375 290.8,375 290.9,375.1 230.8,435 315.7,435 315.6,519.8 375.6,459.8 
		435.5,519.8 435.5,435 520.4,435 	"/>
	<g>
		<polygon class="st3" points="448.5,344.8 405.8,344.9 405.8,302.1 375.6,332.4 345.4,302.1 345.4,344.9 302.7,344.9 332.9,375 
			418.3,375 		"/>
		<polygon class="st10" points="418.2,375.1 418.3,375 332.9,375 332.9,375.1 302.7,405.2 345.4,405.2 345.4,447.9 375.6,417.7 
			405.8,448 405.8,405.2 448.5,405.2 		"/>
	</g>
	<path class="st1" d="M667.2,495.8L546.1,375.1l121-120.7H496.3l0-170.9L375.6,204.5l-120.8-121v170.9H84l121,120.7L84,495.8H255
		l-0.1,170.8l120.7-120.8l120.7,120.9l0-170.9H667.2z M257.5,494.8l27.2-27.2l0,39.5l-27.2,27.3L257.5,494.8z M493.8,255.1
		l-27.2,27.2l0-39.4l27.2-27.3L493.8,255.1z M464,546.5l-27.2-27.2l0-38.5l27.2,27.3L464,546.5z M466.5,510.6l27.2,27.3l0,38.4
		L466.5,549L466.5,510.6z M464,588.7l-27.3-27.3v-38.5l0,0v0l27.2,27.2L464,588.7z M287.1,588.6l0-38.5l27.3-27.3v38.5L287.1,588.6z
		 M287.2,508.1l27.2-27.3l0,38.5l-27.2,27.2L287.2,508.1z M284.6,549.1l-27.2,27.2l0-38.4l27.2-27.3L284.6,549.1z M314.4,437.9
		l0,39.3l-27.2,27.3l0-39.4L314.4,437.9z M227.8,436.2l-27.3,27.3h-38.6l27.4-27.3L227.8,436.2L227.8,436.2L227.8,436.2z
		 M230.3,433.7h-38.5l27.3-27.2h38.5L230.3,433.7z M189.2,313.8l-27.3-27.2l38.6,0l27.2,27.2H189.2z M230.3,316.3l27.3,27.2H219
		l-27.3-27.2H230.3z M287,203.4l27.3,27.3v38.5L287,241.8V203.4z M284.5,239.3L257.2,212v-38.3l27.3,27.3V239.3z M287,161.4
		l27.4,27.4v38.5L287,199.9V161.4z M464,200l-27.2,27.3v-38.5l27.2-27.3L464,200z M493.8,212.1l-27.2,27.3l0-38.4l27.2-27.3
		L493.8,212.1z M464,242l-27.2,27.3l0-38.5l27.2-27.3L464,242z M436.8,312.1l0-39.3l27.2-27.3l0,39.4L436.8,312.1z M520.9,316.3
		h38.5l-27.3,27.2h-38.5L520.9,316.3z M523.4,313.8l27.2-27.2l38.5,0l-27.3,27.3H523.4z M523.4,436.2h38.5l27.4,27.3h-38.6
		L523.4,436.2L523.4,436.2L523.4,436.2z M520.9,433.7l-27.3-27.2H532l27.3,27.2H520.9z M434.3,516.8L407,489.5V451l0,0v0l27.2,27.3
		L434.3,516.8z M316.9,516.8l0-38.5l27.3-27.3v38.5L316.9,516.8z M344.2,408.2l0,39.2l-27.2,27.3l0-39.3L344.2,408.2z M302.2,404
		h-38.5l27.7-27.7h38.5L302.2,404z M302.1,346.1l27.7,27.7h-38.5l-27.7-27.7H302.1z M316.8,233.3l27.3,27.4v38.5l-27.3-27.4V233.3z
		 M434.3,271.8L407,299.1v-38.5l27.2-27.3L434.3,271.8z M407,341.8l0-39.2l27.2-27.3l0,39.3L407,341.8z M449,346.1h38.5l-27.7,27.7
		h-38.5L449,346.1z M449,404l-27.8-27.7h38.5l27.8,27.7H449z M404.5,444.9l-27.7-27.7l0-39.2l27.7,27.6L404.5,444.9z M346.6,444.9
		l0-39.2l27.7-27.7l0,39.2L346.6,444.9z M346.6,305.1l27.7,27.8l0,39.1l-27.7-27.7V305.1z M404.5,344.3L376.8,372l0-39.1l27.7-27.7
		L404.5,344.3z M378.6,376.3h39.1l27.8,27.7h-39.2L378.6,376.3z M417.7,373.8h-39.1l27.7-27.7l39.2,0L417.7,373.8z M404.5,301.6
		l-27.7,27.7l0-38.5l27.7-27.7V301.6z M374.3,329.4l-27.7-27.7v-38.5l27.7,27.7L374.3,329.4z M344.1,302.6v39.2l-27.3-27.3v-39.3
		L344.1,302.6z M372.6,373.8h-39.1l-27.7-27.7l39.2,0L372.6,373.8z M333.5,376.3h39.1L344.8,404h-39.2L333.5,376.3z M346.7,448.4
		l27.7-27.7l0,38.5L346.7,487V448.4z M376.8,420.8l27.7,27.7V487l-27.7-27.7L376.8,420.8z M407,447.4l0-39.2l27.2,27.2l0,39.3
		L407,447.4z M408.8,406.5H448l27.3,27.3h-39.2L408.8,406.5z M451.5,406.5H490l27.4,27.3h-38.5L451.5,406.5z M491,404l-27.8-27.7
		h38.5l27.8,27.7H491z M501.8,373.8h-38.5l27.7-27.7h38.5L501.8,373.8z M490,343.6h-38.5l27.3-27.2l38.5,0L490,343.6z M448,343.6
		l-39.2,0l27.2-27.2l39.3,0L448,343.6z M434.3,229.8L407,257.1v-38.5l27.2-27.3V229.8z M404.5,259.6l-27.7,27.7l0-38.5l27.7-27.7
		V259.6z M374.3,287.3l-27.7-27.7v-38.5l27.7,27.7L374.3,287.3z M344.2,257.1l-27.2-27.3v-38.5l27.2,27.3V257.1z M314.3,272.7V312
		L287,284.7v-39.4L314.3,272.7z M342.4,343.6l-39.2,0l-27.3-27.2l39.3,0L342.4,343.6z M299.7,343.6h-38.6l-27.3-27.2l38.6,0
		L299.7,343.6z M260.1,346.1l27.7,27.7h-38.5l-27.7-27.7H260.1z M249.4,376.3h38.5L260.1,404h-38.5L249.4,376.3z M261.2,406.5h38.5
		l0,0h0l-27.3,27.3h-38.5L261.2,406.5z M303.2,406.5h39.2l-27.3,27.3h-39.2L303.2,406.5z M316.9,520.3l27.2-27.3v38.5l-27.2,27.3
		V520.3z M346.7,490.5l27.7-27.7l0,38.5L346.7,529V490.5z M376.8,462.8l27.7,27.7v38.5l-27.7-27.7L376.8,462.8z M407,493.1
		l27.2,27.3v38.5L407,531.6V493.1z M436.8,477.3l0-39.3l27.2,27.2l0,39.4L436.8,477.3z M438.6,436.2h39.2l27.3,27.3h-39.3
		L438.6,436.2z M481.4,436.2h38.5l27.3,27.3h-38.4L481.4,436.2z M549.6,466l27.3,27.3h-38.3L511.2,466H549.6z M553.2,466h38.6
		l27.3,27.3h-38.6L553.2,466z M565.4,436.2h38.5l27.3,27.2h-38.5L565.4,436.2z M562.9,433.7l-27.3-27.2H574l27.3,27.2H562.9z
		 M533,404l-27.8-27.7h38.5l27.8,27.7H533z M505.4,373.8l27.7-27.7h38.5l-27.7,27.7H505.4z M535.6,343.6l27.3-27.2h38.5L574,343.7
		v-0.1H535.6z M565.4,313.8l27.3-27.2h38.6l-27.3,27.2H565.4z M591.7,284.1l-38.6,0l27.3-27.2H619L591.7,284.1z M549.6,284.1
		l-38.4,0l27.3-27.3h38.3L549.6,284.1z M547.1,286.6l-27.2,27.2l-38.5,0l27.3-27.2L547.1,286.6z M477.8,313.9l-39.3,0l27.2-27.2
		l39.4,0L477.8,313.9z M493.8,170.3l-27.2,27.3l0-38.6l27.2-27.3L493.8,170.3z M436.8,185.2v-38.5l27.2-27.3v38.5L436.8,185.2z
		 M434.3,187.7L407,215v-38.4h-0.1l27.4-27.4V187.7z M404.5,217.5l-27.7,27.7l0-38.5l27.7-27.7V217.5z M374.3,245.3l-27.7-27.7V179
		l27.7,27.7L374.3,245.3z M344.2,176.6V215l-27.2-27.3v-38.5L344.2,176.6L344.2,176.6z M314.4,185.3L287.2,158v-38.5l27.2,27.3
		V185.3z M284.5,197.4l-27.3-27.3v-38.6l27.3,27.4V197.4z M257.2,215.5l27.3,27.4v39.4l-27.3-27.3V215.5z M312.7,313.9l-39.3,0
		l-27.3-27.2l39.3,0L312.7,313.9z M269.9,313.9l-38.5,0l-27.2-27.2l38.4,0L269.9,313.9z M201.6,284.1l-27.3-27.2h38.3l27.3,27.3
		L201.6,284.1z M198.1,284.1l-38.6,0l-27.3-27.2h38.6L198.1,284.1z M158.4,286.6l27.3,27.2h-38.6l-27.3-27.2H158.4z M188.2,316.3
		l27.3,27.2h-38.3v0.2l-27.5-27.5H188.2z M218,346.1l27.7,27.7h-38.5l-27.7-27.7H218z M245.8,376.3L218.1,404h-38.5l27.7-27.7H245.8
		z M215.6,406.5l-27.3,27.2h-38.5l27.4-27.3v0.1H215.6z M185.8,436.2l-27.3,27.2h-38.5l27.3-27.2H185.8z M198,466l-27.3,27.3h-38.6
		l27.3-27.3H198z M201.6,466H240l-27.3,27.3h-38.3L201.6,466z M204.1,463.5l27.3-27.3h38.5l-27.3,27.3H204.1z M273.4,436.2h39.2
		l-27.3,27.3H246L273.4,436.2z M257.4,579.8l27.2-27.2l0,38.6l-27.2,27.3L257.4,579.8z M287.2,592.1l27.2-27.3v38.5l-27.2,27.3
		V592.1z M316.9,562.3l27.2-27.3v38.4h0.1l-27.4,27.4V562.3z M346.7,532.6l27.7-27.7l0,38.5l-27.7,27.7V532.6z M376.8,504.9
		l27.7,27.7v38.5l-27.7-27.7L376.8,504.9z M407,573.5v-38.3l27.2,27.3V601l-27.5-27.5H407z M436.8,564.9l27.2,27.3v38.5l-27.2-27.3
		V564.9z M466.5,552.6l27.2,27.2l0,38.6l-27.2-27.3L466.5,552.6z M466.5,507.1l0-39.4l27.2,27.2l0,39.5L466.5,507.1z M495.7,493.3
		L468.4,466h39.3l27.3,27.3H495.7z M622.6,493.3L595.3,466h0l0,0h38.5l27.4,27.3H622.6z M633.8,284.1h-38.5l27.3-27.2H661
		L633.8,284.1z M535,256.9l-27.4,27.3l-39.4,0l27.3-27.3H535z M493.8,128.1l-27.2,27.3v-38.5l27.2-27.3L493.8,128.1z M284.7,117
		v38.4l-27.4-27.5V89.5L284.7,117z M255.6,256.9l27.3,27.3l-39.3,0l-27.3-27.3H255.6z M128.6,256.9l27.3,27.2h-38.6l-27.3-27.2
		H128.6z M117.4,466h38.5l0,0h0l-27.3,27.3H90.1L117.4,466z M216.2,493.3l27.3-27.3h39.3l-27.3,27.3H216.2z M257.4,622l27.3-27.3
		v38.5l-27.3,27.3L257.4,622z M466.5,633.3v-38.5l0,0v0l27.2,27.3l0,38.6L466.5,633.3z"/>
</g>
</svg>
